<?xml version="1.0" encoding="UTF-8" standalone="no"?>
<svg
   version="1.0"
   width="474.000000pt"
   height="613.000000pt"
   viewBox="0 0 474.000000 613.000000"
   preserveAspectRatio="xMidYMid meet"
   id="svg1"
   sodipodi:docname="penguin-fatter.svg"
   inkscape:version="1.3 (0e150ed6c4, 2023-07-21)"
   xmlns:inkscape="http://www.inkscape.org/namespaces/inkscape"
   xmlns:sodipodi="http://sodipodi.sourceforge.net/DTD/sodipodi-0.dtd"
   xmlns="http://www.w3.org/2000/svg"
   xmlns:svg="http://www.w3.org/2000/svg">
  <defs
     id="defs1" />
  <sodipodi:namedview
     id="namedview1"
     pagecolor="#ffffff"
     bordercolor="#000000"
     borderopacity="0.25"
     inkscape:showpageshadow="2"
     inkscape:pageopacity="0.0"
     inkscape:pagecheckerboard="0"
     inkscape:deskcolor="#d1d1d1"
     inkscape:document-units="pt"
     showgrid="false"
     inkscape:zoom="0.7691084"
     inkscape:cx="16.902689"
     inkscape:cy="667.65621"
     inkscape:window-width="1920"
     inkscape:window-height="1166"
     inkscape:window-x="-11"
     inkscape:window-y="-11"
     inkscape:window-maximized="1"
     inkscape:current-layer="g1" />
  <g
     transform="translate(0.000000,613.000000) scale(0.100000,-0.100000)"
     fill="#000000"
     stroke="none"
     id="g1"
     style="fill:#eeeeee;fill-opacity:1;stroke:#000000;stroke-opacity:1">
    <path
       d="m 2700,5851 c -113,-16 -232,-82 -337,-186 -73,-73 -136,-179 -147,-250 -3,-16 -16,-100 -30,-185 -14,-85 -30,-195 -35,-245 -5,-49 -21,-146 -36,-215 -14,-69 -27,-136 -29,-150 -2,-14 -13,-59 -26,-100 -12,-41 -29,-99 -37,-129 -7,-30 -23,-75 -34,-100 -11,-25 -22,-53 -24,-61 -2,-8 -24,-49 -49,-91 -77,-128 -194,-242 -385,-379 -41,-29 -79,-57 -85,-62 -6,-5 -54,-39 -106,-76 -466,-327 -681,-610 -739,-972 -23,-140 -5,-344 35,-405 33,-51 79,-25 134,76 153,281 204,359 309,473 52,55 204,176 286,226 200,123 240,147 243,145 3,-3 -22,-102 -56,-220 -55,-190 -74,-528 -47,-841 21,-246 17,-445 -13,-584 -11,-52 -23,-118 -26,-146 -10,-96 -65,-277 -116,-388 -78,-168 -157,-252 -337,-360 -43,-26 -63,-44 -63,-57 0,-33 43,-42 190,-35 171,7 297,36 403,92 29,16 66,26 95,27 40,2 48,-1 58,-23 7,-14 14,-39 17,-56 13,-87 68,-121 267,-164 89,-20 105,-29 138,-76 18,-24 36,-44 41,-44 6,0 33,9 62,20 l 51,21 43,-26 c 54,-31 72,-31 115,0 22,16 47,25 69,25 35,-1 49,-5 158,-49 29,-11 59,-18 67,-15 19,7 38,97 30,139 -8,42 -46,78 -109,103 -50,20 -236,69 -310,82 -104,19 -203,77 -190,112 21,55 253,74 367,29 64,-25 110,-70 138,-137 31,-70 51,-78 250,-94 131,-10 191,-25 241,-61 l 30,-21 49,21 c 60,26 66,26 124,1 l 46,-21 48,22 c 49,24 72,26 134,14 31,-6 37,-4 43,14 15,48 -68,167 -150,215 -39,23 -58,26 -182,32 -156,7 -203,20 -203,57 0,13 23,70 51,128 72,149 98,209 144,339 13,36 30,81 39,101 8,20 17,47 20,60 3,13 18,60 34,104 49,132 146,471 158,550 3,22 16,86 30,142 13,57 26,124 28,150 2,27 14,113 25,193 25,175 45,426 35,441 -4,7 -1,10 7,7 35,-12 173,-339 185,-438 2,-25 7,-52 10,-62 3,-9 13,-65 23,-125 25,-144 33,-163 69,-163 17,0 37,9 49,22 31,34 79,133 107,223 53,170 55,187 52,394 -2,182 -4,202 -29,281 -15,47 -29,94 -32,104 -9,38 -89,193 -138,266 -70,105 -120,164 -279,326 -76,78 -139,150 -139,160 -3,44 -41,194 -89,349 -10,33 -24,85 -30,115 -6,30 -25,109 -41,175 -16,66 -31,134 -33,150 -2,17 -16,86 -31,155 -29,136 -38,258 -23,317 20,82 136,196 248,245 25,11 63,28 85,37 22,10 52,21 67,25 31,7 51,37 42,61 -8,20 -70,52 -115,60 -19,3 -52,10 -74,16 -22,5 -106,13 -186,18 -150,9 -168,15 -249,71 -14,9 -54,31 -90,48 -55,26 -80,32 -160,36 -52,2 -120,1 -150,-3 z m 262,-45 c 36,-13 98,-44 136,-70 82,-54 121,-63 297,-69 137,-5 240,-28 285,-65 l 23,-19 -59,-22 c -284,-109 -394,-220 -394,-399 0,-76 28,-269 56,-382 14,-58 27,-119 29,-137 3,-18 16,-76 31,-129 2.0049,-7.5898 3.9892,-15.2822 5.9237,-22.942 11.574,-45.8289 21.3627,-90.4925 23.0763,-105.058 2,-17 18,-74 34,-126 16,-52 37,-131 47,-175 31,-146 43,-165 220,-348 139,-143 193,-210 272,-332 32,-51 123,-259 120,-273 -1,-4 7,-43 18,-87 26,-110 27,-363 1,-449 -10,-32 -20,-70 -22,-85 -11,-84 -114,-291 -144,-291 -13,0 -40,74 -42,112 -2,47 -26,179 -50,278 -31,125 -102,296 -163,387 -25,38 -54,43 -60,11 -5,-25 -39,-423 -38,-448 0,-25 -28,-201 -43,-268 -8,-34 -17,-82 -20,-105 -13,-108 -92,-397 -187,-677 -32,-96 -60,-182 -63,-190 -5,-23 -63,-167 -96,-241 -16,-36 -29,-71 -29,-77 0,-7 -10,-29 -23,-50 -37,-58 -77,-149 -77,-172 0,-62 34,-76 210,-85 92,-5 137,-12 172,-27 53,-23 122,-92 144,-143 20,-49 18,-56 -12,-45 -40,16 -94,12 -129,-10 -30,-19 -34,-19 -89,-3 -49,14 -64,14 -111,3 -53,-13 -56,-12 -125,19 -65,30 -80,33 -220,40 -146,8 -151,9 -180,36 -15,15 -38,49 -49,76 -23,53 -62,88 -131,116 -67,27 -332,27 -373,-1 -15,-10 -33,-28 -38,-38 -15,-28 6,-73 45,-97 33,-21 252,-85 326,-96 63,-9 194,-61 216,-86 14,-16 19,-35 18,-76 -2,-74 -11,-80 -75,-48 -38,20 -73,28 -128,32 -70,4 -79,3 -110,-20 l -33,-26 -47,26 c -47,26 -48,27 -109,12 l -62,-15 -24,36 c -27,41 -85,66 -221,95 -131,29 -151,44 -184,147 -25,76 -39,91 -81,90 -27,-1 -53,-11 -175,-68 -50,-23 -81,-32 -126,-39 -24,-3 -71,-10 -104,-15 -69,-11 -248,-13 -258,-3 -4,4 28,27 70,51 120,68 235,190 301,320 29,56 52,104 52,107 -1,3 12,49 29,103 44,142 80,329 93,478 9,99 8,215 -1,485 -18,477 -8,614 63,889 2,8 12,39 21,68 10,30 18,70 19,90 1,34 -1,37 -26,35 -15,-1 -63,-24 -105,-52 -43,-27 -112,-71 -153,-97 -264,-169 -388,-306 -554,-616 -73,-136 -120,-194 -136,-168 -39,62 -51,271 -24,411 9,46 18,95 21,109 9,52 86,207 150,304 81,124 245,291 393,400 58,42 112,82 120,89 8,7 51,37 95,67 144,99 342,258 405,327 136,148 204,292 279,593 36,144 106,558 116,685 17,222 101,372 275,487 155,103 316,128 472,74 z"
       id="path1"
       style="fill:#eeeeee;fill-opacity:1;stroke:#ffffff;stroke-opacity:1;stroke-width:99.21259845;stroke-dasharray:none"
       sodipodi:nodetypes="cccsccsccssccscccccccccccccscccccccscccccccsccccccccccccscccscccsccccccccccscccccccccssccccccccccccccccccccscccssscccccccsccccccccccscsccccccccccccccccccccccscccccccccsccccccccccccccccccscccccc" />
  </g>
</svg>
