<?xml version="1.0" encoding="UTF-8" standalone="no"?>
<svg
   version="1.0"
   width="600.000000pt"
   height="500.000000pt"
   viewBox="0 0 600.000000 500.000000"
   preserveAspectRatio="xMidYMid meet"
   id="svg2"
   sodipodi:docname="polar-bear-outline-drawing-2.svg"
   inkscape:version="1.3 (0e150ed6c4, 2023-07-21)"
   xmlns:inkscape="http://www.inkscape.org/namespaces/inkscape"
   xmlns:sodipodi="http://sodipodi.sourceforge.net/DTD/sodipodi-0.dtd"
   xmlns="http://www.w3.org/2000/svg"
   xmlns:svg="http://www.w3.org/2000/svg">
  <defs
     id="defs2" />
  <sodipodi:namedview
     id="namedview2"
     pagecolor="#ffffff"
     bordercolor="#000000"
     borderopacity="0.25"
     inkscape:showpageshadow="2"
     inkscape:pageopacity="0.0"
     inkscape:pagecheckerboard="0"
     inkscape:deskcolor="#d1d1d1"
     inkscape:document-units="pt"
     inkscape:zoom="0.94292689"
     inkscape:cx="233.31607"
     inkscape:cy="386.56231"
     inkscape:window-width="1920"
     inkscape:window-height="1166"
     inkscape:window-x="-11"
     inkscape:window-y="-11"
     inkscape:window-maximized="1"
     inkscape:current-layer="svg2" />
  <g
     transform="matrix(0.1824766,0,0,-0.2089898,-259.94518,768.1183)"
     fill="#000000"
     stroke="none"
     id="g2"
     style="fill:#fdfcfc;fill-opacity:1;stroke:#000000;stroke-width:6.1188;stroke-dasharray:none;stroke-opacity:1">
    <path
       d="m 2270,3395 c -182,-38 -345,-127 -463,-254 -136,-148 -215,-318 -263,-566 -25,-125 -25,-472 -1,-600 17,-97 57,-226 89,-288 30,-59 86,-115 126,-127 21,-5 153,-10 300,-10 h 262 v 35 35 l 222,2 222,3 -3,50 c -6,108 -62,172 -184,211 -31,10 -64,26 -73,35 -17,19 -32,99 -18,99 5,0 45,-7 89,-16 46,-9 137,-16 213,-16 129,-1 133,-2 130,-22 -2,-15 -11,-22 -35,-24 -17,-2 -43,-14 -57,-27 -21,-20 -26,-33 -26,-74 0,-41 6,-57 33,-93 53,-69 116,-102 203,-106 93,-5 160,23 244,103 l 59,57 63,-54 c 35,-29 86,-70 114,-91 l 52,-37 h 276 277 l -7,63 c -11,107 -60,161 -180,201 -89,29 -104,55 -104,173 0,159 86,497 135,529 13,8 83,36 156,63 216,77 313,134 414,243 88,93 135,204 135,314 v 34 h -148 -148 l -54,55 -54,55 h -104 c -95,0 -106,2 -137,25 -58,45 -147,42 -190,-5 -16,-18 -32,-20 -136,-20 -65,0 -202,-9 -306,-21 -103,-12 -249,-21 -323,-21 -129,-1 -140,1 -250,37 -63,20 -149,43 -190,51 -94,17 -274,16 -360,-1 z m 350,-91 c 45,-8 121,-28 168,-45 161,-55 298,-58 657,-14 66,8 187,15 271,15 h 151 l 13,25 c 24,45 90,42 105,-5 6,-19 15,-20 124,-20 h 117 l 54,-55 54,-55 h 86 l 85,-1 24,-37 23,-37 -22,-42 c -64,-120 -234,-234 -460,-308 -161,-52 -212,-85 -360,-234 -148,-149 -195,-213 -320,-431 -94,-164 -146,-237 -196,-275 -99,-75 -211,-73 -277,5 -35,40 -32,66 5,62 62,-7 85,33 90,158 l 3,75 -30,-2 c -16,-1 -95,-2 -175,-3 -166,-1 -270,15 -388,61 -42,16 -79,29 -82,29 -4,0 -16,-24 -29,-54 -41,-100 -140,-189 -256,-231 -61,-22 -95,-51 -95,-81 0,-28 16,-40 65,-49 55,-9 155,-58 184,-89 l 24,-26 h -214 c -118,0 -224,3 -236,6 -12,3 -34,24 -48,46 -67,101 -113,292 -122,508 -24,599 224,1010 667,1105 88,18 240,18 340,-1 z m 1157,-964 c -27,-102 -31,-131 -31,-260 -1,-137 0,-147 24,-189 26,-45 58,-67 143,-96 48,-17 107,-59 107,-76 0,-5 -91,-9 -212,-9 h -211 l -56,42 c -75,57 -141,118 -141,131 0,17 166,302 209,361 40,53 192,219 197,214 1,-2 -12,-55 -29,-118 z M 2390,1980 c 1,-46 31,-111 64,-138 15,-11 56,-30 91,-42 69,-23 115,-53 115,-76 0,-12 -31,-14 -183,-14 -173,0 -185,1 -203,21 -10,11 -44,35 -76,53 l -59,33 60,36 c 60,37 145,123 164,165 13,29 27,11 27,-38 z"
       id="path1"
       style="fill:#fdfcfc;fill-opacity:1;stroke:#000000;stroke-width:6.1188;stroke-dasharray:none;stroke-opacity:1" />
    <path
       d="m 4140,3145 c -18,-22 -1,-50 31,-50 20,0 24,5 24,30 0,23 -5,31 -21,33 -11,2 -27,-4 -34,-13 z"
       id="path2"
       style="fill:#fdfcfc;fill-opacity:1;stroke:#000000;stroke-width:6.1188;stroke-dasharray:none;stroke-opacity:1" />
  </g>
</svg>
